<svg fill="none" height="512" viewBox="0 0 24 24" width="512" xmlns="http://www.w3.org/2000/svg"><g fill="rgb(0,0,0)"><path clip-rule="evenodd" d="m4 12c0-.5523.44772-1 1-1h14c.5523 0 1 .4477 1 1s-.4477 1-1 1h-14c-.55228 0-1-.4477-1-1z" fill-rule="evenodd"/><path d="m12 7c.5523 0 1-.44772 1-1s-.4477-1-1-1-1 .44772-1 1 .4477 1 1 1z"/><path clip-rule="evenodd" d="m10 6c0-1.10457.8954-2 2-2s2 .89543 2 2-.8954 2-2 2-2-.89543-2-2z" fill-rule="evenodd"/><path d="m12 19c.5523 0 1-.4477 1-1s-.4477-1-1-1-1 .4477-1 1 .4477 1 1 1z"/><path clip-rule="evenodd" d="m10 18c0-1.1046.8954-2 2-2s2 .8954 2 2-.8954 2-2 2-2-.8954-2-2z" fill-rule="evenodd"/></g></svg>