<svg id="Capa_1" enable-background="new 0 0 512 512" height="512" viewBox="0 0 512 512" width="512" xmlns="http://www.w3.org/2000/svg"><g><path clip-rule="evenodd" d="m429.176 361.412h-120.47c-8.317 0-15.059-6.742-15.059-15.059v-180.706c0-8.317 6.742-15.059 15.059-15.059h120.471c8.317 0 15.059 6.742 15.059 15.059v180.706c-.001 8.317-6.743 15.059-15.06 15.059zm-15.058-30.118v-150.588h-90.353v150.588zm-210.824 30.118h-120.47c-8.317 0-15.059-6.742-15.059-15.059v-180.706c0-8.317 6.742-15.059 15.059-15.059h120.471c8.317 0 15.059 6.742 15.059 15.059v180.706c-.001 8.317-6.743 15.059-15.06 15.059zm-15.059-30.118v-150.588h-90.353v150.588zm135.448-271.059c-1.62-1.531-2.968-2.828-3.794-3.654-35.285-35.285-92.494-35.285-127.779 0-5.881 5.881-15.415 5.881-21.296 0s-5.881-15.415 0-21.296c47.047-47.046 123.324-47.046 170.371 0 .921.92 2.873 2.778 5.167 4.927v-25.153c.001-8.317 6.743-15.059 15.06-15.059s15.059 6.742 15.059 15.059v60.235c0 8.317-6.742 15.059-15.059 15.059h-60.235c-8.317 0-15.059-6.742-15.059-15.059s6.742-15.059 15.059-15.059zm-135.366 391.53c1.619 1.531 2.968 2.828 3.794 3.654 35.285 35.285 92.494 35.285 127.779 0 5.881-5.881 15.415-5.881 21.296 0s5.881 15.415 0 21.296c-47.047 47.046-123.324 47.046-170.371 0-.921-.921-2.873-2.778-5.167-4.927v25.153c0 8.317-6.742 15.059-15.059 15.059s-15.059-6.742-15.059-15.059v-60.235c0-8.317 6.742-15.059 15.059-15.059h60.235c8.317 0 15.059 6.742 15.059 15.059s-6.742 15.059-15.059 15.059z" fill-rule="evenodd"/></g></svg>